<svg viewBox="0 0 260.46 51.31" xmlns="http://www.w3.org/2000/svg"><g transform="translate(.06)"><g fill="#065adc"><path d="m47 25.6-4.5 3.2s-4.7 4-10 1.3a94.83 94.83 0 0 0 -10.2-4.8s-3.8-1.3-.4-3.5 9.6-6.4 9.6-6.4a9.85 9.85 0 0 1 7.3-1.2c3.1.9 13.7 3.2 13.7 3.2s3.8 1.9.5 4.3c-3.1 2.1-6 3.9-6 3.9z" opacity=".67"/><path d="m25.7 44c-.1 1.3 1.1 2.1 2.8 1.9s3.1-1.4 3.2-2.7-1.3-2-2.9-1.8a3.57 3.57 0 0 0 -3.1 2.6z" opacity=".62"/><path d="m31.6 47.9c0 1.3 1.3 2.2 2.9 2s3-1.4 3-2.7-1.4-2.1-3-1.9-2.9 1.4-2.9 2.6z" opacity=".62"/><path d="m40 42.9c.2 1.4 2 2.4 4.2 2.1s3.7-1.7 3.4-3.1-2.1-2.3-4.2-2-3.6 1.5-3.4 3z" opacity=".62"/><path d="m21.1 40.7c-.2 1.1.9 1.9 2.5 1.7s3-1.3 3.1-2.5-1-1.8-2.5-1.6a3.61 3.61 0 0 0 -3.1 2.4z" opacity=".62"/><path d="m16.8 37.7c-.2 1 .7 1.7 2.2 1.5a3.42 3.42 0 0 0 3-2.3c.2-1.1-.8-1.6-2.2-1.4a3.7 3.7 0 0 0 -3 2.2z" opacity=".62"/><path d="m12.9 35.3c-.3.9.6 1.5 1.9 1.3a3.53 3.53 0 0 0 2.9-2.1c.2-.9-.7-1.5-2-1.3a4 4 0 0 0 -2.8 2.1z" opacity=".62"/><path d="m9.7 33c-.2.9.6 1.3 1.8 1a3.48 3.48 0 0 0 2.6-2.1c.2-.8-.7-1.3-1.9-1a4 4 0 0 0 -2.5 2.1z" opacity=".62"/><path d="m33.9 38.9c0 1.2 1.4 2 3.2 1.8s3.2-1.4 3.1-2.7-1.5-1.9-3.2-1.7a3.46 3.46 0 0 0 -3.1 2.6z" opacity=".62"/><path d="m40.2 34.3c0 1.2 1.4 2 3.2 1.8s3.2-1.4 3.1-2.7-1.5-1.9-3.2-1.6-3.1 1.4-3.1 2.5z" opacity=".62"/><path d="m28.1 35.9c-.1 1.1 1.1 1.8 2.8 1.5s3-1.3 3-2.4-1.3-1.7-2.8-1.5-2.9 1.4-3 2.4z" opacity=".62"/><path d="m23.3 33.3c-.1 1 .9 1.6 2.4 1.4s2.8-1.2 2.9-2.2-1-1.5-2.5-1.3-2.7 1.1-2.8 2.1z" opacity=".62"/><path d="m18.9 31.1c-.2.9.8 1.5 2.2 1.2s2.7-1.2 2.8-2.1-.9-1.4-2.2-1.1a4.13 4.13 0 0 0 -2.8 2z" opacity=".62"/><path d="m15.6 28.9c-.2.8.6 1.3 2 1.1a3.24 3.24 0 0 0 2.7-1.9c.2-.8-.7-1.3-2-1a3.61 3.61 0 0 0 -2.7 1.8z" opacity=".62"/><path d="m11.7 27.6c-.3.7.5 1.2 1.7 1a3.24 3.24 0 0 0 2.5-1.7c.2-.7-.6-1.1-1.7-.9a3.58 3.58 0 0 0 -2.5 1.6z" opacity=".61"/><path d="m8.7 26c-.3.7.4 1.1 1.5.9a3.12 3.12 0 0 0 2.4-1.6c.2-.7-.5-1-1.5-.8a2.79 2.79 0 0 0 -2.4 1.5z" opacity=".62"/><path d="m14 22.9c-.2.6.5 1 1.6.8a3.09 3.09 0 0 0 2.3-1.5c.2-.6-.6-.9-1.6-.7a2.65 2.65 0 0 0 -2.3 1.4z" opacity=".62"/><path d="m10.3 21.7c-.2.6.4.9 1.4.7a3.27 3.27 0 0 0 2.3-1.5c.2-.6-.5-.9-1.5-.7a4.35 4.35 0 0 0 -2.2 1.5z" opacity=".62"/><path d="m5.8 24.6c-.2.5.3.8 1.1.7a3 3 0 0 0 2-1.3c.2-.5-.3-.8-1.2-.6a3.27 3.27 0 0 0 -1.9 1.2z" opacity=".62"/><path d="m7.1 30.8c-.3.6.3 1 1.3.9a2.74 2.74 0 0 0 2.1-1.5c.2-.6-.4-1-1.3-.8a2.88 2.88 0 0 0 -2.1 1.4z" opacity=".62"/><path d="m5.2 36.4c-.3.6.3 1 1.1.9a2.47 2.47 0 0 0 2-1.4c.2-.6-.3-1-1.2-.9a3 3 0 0 0 -1.9 1.4z" opacity=".62"/><path d="m1.8 34c-.3.6.2 1 1 .8a2.59 2.59 0 0 0 1.9-1.3c.2-.6-.2-.9-1-.8a3.28 3.28 0 0 0 -1.9 1.3z" opacity=".62"/><path d="m4.7 28.9c-.2.5.2.8 1 .7a2.47 2.47 0 0 0 1.8-1.2c.2-.5-.3-.8-1-.6a2.19 2.19 0 0 0 -1.8 1.1z" opacity=".62"/><path d="m8.4 38.9c-.2.7.3 1.2 1.3 1a2.74 2.74 0 0 0 2.1-1.5c.2-.7-.4-1.1-1.3-1a2.53 2.53 0 0 0 -2.1 1.5z" opacity=".62"/><path d="m12.2 41.8c-.2.8.4 1.3 1.4 1.2a2.59 2.59 0 0 0 2.2-1.7c.2-.8-.5-1.2-1.5-1.1a2.86 2.86 0 0 0 -2.1 1.6z" opacity=".62"/><path d="m16.2 45c-.2.8.5 1.4 1.6 1.3a2.84 2.84 0 0 0 2.3-1.8c.1-.8-.6-1.4-1.7-1.2a2.76 2.76 0 0 0 -2.2 1.7z" opacity=".62"/><path d="m9.9 50.4c-.1.5.3.9.9.9a1.77 1.77 0 0 0 1.4-1.1c.1-.5-.3-.9-.9-.8a1.61 1.61 0 0 0 -1.4 1z" opacity=".62"/><path d="m5.8 46.4c-.2.7.3 1.1 1.1 1a2.47 2.47 0 0 0 1.9-1.4c.2-.7-.3-1.1-1.1-1a2.37 2.37 0 0 0 -1.9 1.4z" opacity=".62"/><path d="m3.2 43.2c-.2.5.1.8.6.7a1.6 1.6 0 0 0 1.3-.9c.2-.4-.2-.7-.7-.7a1.59 1.59 0 0 0 -1.2.9z" opacity=".62"/><path d="m0 40.2c-.2.4.1.7.6.6a1.59 1.59 0 0 0 1.2-.9c.2-.4-.1-.7-.6-.6a3.45 3.45 0 0 0 -1.2.9z" opacity=".62"/><path d="m20.8 49.1c-.1 1 .7 1.6 1.9 1.5a2.78 2.78 0 0 0 2.4-2c.1-.9-.8-1.6-1.9-1.4a2.46 2.46 0 0 0 -2.4 1.9z" opacity=".62"/><path d="m47.2 30.4c-.2 1 .7 1.6 1.9 1.5a2.78 2.78 0 0 0 2.4-2c.1-.9-.8-1.6-1.9-1.4a2.46 2.46 0 0 0 -2.4 1.9z" opacity=".62"/><path d="m43.9 19.3-4.5 3.2s-4.7 4-10 1.3c-3.3-1.8-6.7-3.4-10.2-4.9 0 0-3.8-1.3-.4-3.5s9.6-6.4 9.6-6.4a9.85 9.85 0 0 1 7.3-1.2c3.1.9 13.7 3.2 13.7 3.2s3.8 1.9.5 4.3c-3.1 2.1-6 4-6 4z" opacity=".62"/><path d="m40.3 11.8-4.5 3.2s-4.7 4-10 1.3c-3.3-1.8-6.7-3.4-10.2-4.9 0 0-3.8-1.3-.4-3.6s9.6-6.4 9.6-6.4a10.34 10.34 0 0 1 7.3-1.2c3.1.9 13.7 3.2 13.7 3.2s3.8 1.9.5 4.3c-3.1 2.3-6 4.1-6 4.1z" opacity=".35"/></g><path d="m93.81 13.85v27.09h-6.59v-11.31h-10.22v11.3h-6.6v-27.08h6.6v10.5h10.22v-10.5z" fill="#0a1d38"/><path d="m114 20.61a9.69 9.69 0 0 1 4 3.81 11.45 11.45 0 0 1 1.44 5.82 11.44 11.44 0 0 1 -1.44 5.83 9.69 9.69 0 0 1 -4 3.81 13 13 0 0 1 -11.4 0 9.65 9.65 0 0 1 -4-3.81 11.44 11.44 0 0 1 -1.44-5.82 11.45 11.45 0 0 1 1.44-5.82 9.66 9.66 0 0 1 4-3.81 12.94 12.94 0 0 1 11.4 0zm-8.85 5.71a5.51 5.51 0 0 0 -1.28 3.93 5.44 5.44 0 0 0 1.28 3.91 4.2 4.2 0 0 0 3.16 1.34 4.14 4.14 0 0 0 3.14-1.34 5.49 5.49 0 0 0 1.26-3.91 5.56 5.56 0 0 0 -1.26-3.93 4.12 4.12 0 0 0 -3.12-1.32 4.17 4.17 0 0 0 -3.16 1.32z" fill="#0a1d38"/><path d="m137.09 21.32a8.83 8.83 0 0 1 3 5.36h-6.09a3.4 3.4 0 0 0 -1.21-2 3.67 3.67 0 0 0 -2.36-.75 2.58 2.58 0 0 0 -1.69.48 1.67 1.67 0 0 0 -.57 1.36 1.59 1.59 0 0 0 1.05 1.49 16.69 16.69 0 0 0 3.31 1 32.92 32.92 0 0 1 4 1.17 6.64 6.64 0 0 1 2.72 1.93 5.35 5.35 0 0 1 1.15 3.6 5.52 5.52 0 0 1 -1 3.26 6.57 6.57 0 0 1 -2.87 2.22 11.24 11.24 0 0 1 -4.44.8 11.44 11.44 0 0 1 -6.93-1.92 8.08 8.08 0 0 1 -3.16-5.51h6.32a2.84 2.84 0 0 0 1.17 2.11 4.4 4.4 0 0 0 2.62.73 2.45 2.45 0 0 0 1.69-.52 1.74 1.74 0 0 0 .57-1.36 1.64 1.64 0 0 0 -1.05-1.59 19.43 19.43 0 0 0 -3.43-1 27.31 27.31 0 0 1 -3.89-1.09 6.45 6.45 0 0 1 -2.64-1.86 5.18 5.18 0 0 1 -1.11-3.51 5.72 5.72 0 0 1 2.18-4.66 9.52 9.52 0 0 1 6.17-1.78 9.81 9.81 0 0 1 6.49 2.04z" fill="#0a1d38"/><path d="m156.19 35.31v5.63h-3a8.49 8.49 0 0 1 -5.84-1.86q-2.09-1.86-2.09-6.15v-7.85h-2.87v-5.52h2.87v-5.25h6.55v5.25h4.29v5.52h-4.29v8a2.4 2.4 0 0 0 .52 1.76 2.47 2.47 0 0 0 1.74.5z" fill="#0a1d38"/><path d="m180.94 16.07a10.61 10.61 0 0 1 4.1 6.74h-6.94a5.35 5.35 0 0 0 -2.1-2.31 6.44 6.44 0 0 0 -3.41-.86 6.37 6.37 0 0 0 -5 2.09 8.14 8.14 0 0 0 -1.88 5.65 8.27 8.27 0 0 0 2 5.94 7.39 7.39 0 0 0 5.61 2.07 6.64 6.64 0 0 0 6.59-4.94h-8.28v-4.72h13.76v6.47a13.2 13.2 0 0 1 -2.45 4.41 12.63 12.63 0 0 1 -4.31 3.3 13.66 13.66 0 0 1 -6 1.26 14.24 14.24 0 0 1 -7.16-1.74 11.94 11.94 0 0 1 -4.73-4.89 15.05 15.05 0 0 1 -1.67-7.16 15.06 15.06 0 0 1 1.67-7.17 12 12 0 0 1 4.71-4.89 14.06 14.06 0 0 1 7.11-1.74 13.53 13.53 0 0 1 8.38 2.49z" fill="#0a1d38"/><path d="m198.77 20.48a8.06 8.06 0 0 1 4.2-1.15v7h-1.88a6.48 6.48 0 0 0 -4 1.11 4.46 4.46 0 0 0 -1.44 3.75v9.73h-6.55v-21.36h6.55v4a9.3 9.3 0 0 1 3.12-3.08z" fill="#0a1d38"/><path d="m206.19 11.07a4.6 4.6 0 0 1 5.67 0 3.2 3.2 0 0 1 1.07 2.47 3.16 3.16 0 0 1 -1.07 2.46 4.6 4.6 0 0 1 -5.67 0 3.16 3.16 0 0 1 -1.07-2.43 3.2 3.2 0 0 1 1.07-2.5zm6.09 8.49v21.38h-6.55v-21.38z" fill="#0a1d38"/><path d="m229.14 20.4a6.46 6.46 0 0 1 2.57 3v-10.82h6.55v28.36h-6.56v-3.87a6.45 6.45 0 0 1 -2.57 3 7.74 7.74 0 0 1 -4.21 1.11 8.66 8.66 0 0 1 -4.73-1.32 9 9 0 0 1 -3.29-3.81 13.21 13.21 0 0 1 -1.21-5.82 13.18 13.18 0 0 1 1.21-5.84 9.06 9.06 0 0 1 3.29-3.79 8.66 8.66 0 0 1 4.73-1.32 7.75 7.75 0 0 1 4.22 1.12zm-5.5 6a5.41 5.41 0 0 0 -1.28 3.83 5.41 5.41 0 0 0 1.28 3.83 4.81 4.81 0 0 0 6.78 0 5.34 5.34 0 0 0 1.32-3.79 5.33 5.33 0 0 0 -1.32-3.81 4.46 4.46 0 0 0 -3.42-1.46 4.41 4.41 0 0 0 -3.36 1.42z" fill="#0a1d38"/><path d="m257 21.32a8.83 8.83 0 0 1 3 5.36h-6a3.4 3.4 0 0 0 -1.21-2 3.67 3.67 0 0 0 -2.36-.75 2.58 2.58 0 0 0 -1.69.48 1.67 1.67 0 0 0 -.57 1.36 1.59 1.59 0 0 0 1.05 1.49 16.69 16.69 0 0 0 3.31 1 32.92 32.92 0 0 1 4 1.17 6.64 6.64 0 0 1 2.72 1.93 5.35 5.35 0 0 1 1.15 3.6 5.52 5.52 0 0 1 -1 3.26 6.57 6.57 0 0 1 -2.87 2.22 11.24 11.24 0 0 1 -4.44.8 11.44 11.44 0 0 1 -6.93-1.92 8.08 8.08 0 0 1 -3.16-5.51h6.32a2.84 2.84 0 0 0 1.17 2.11 4.4 4.4 0 0 0 2.62.73 2.45 2.45 0 0 0 1.69-.52 1.74 1.74 0 0 0 .57-1.36 1.64 1.64 0 0 0 -1.05-1.59 19.43 19.43 0 0 0 -3.43-1 27.31 27.31 0 0 1 -3.89-1.09 6.45 6.45 0 0 1 -2.64-1.86 5.18 5.18 0 0 1 -1.11-3.51 5.72 5.72 0 0 1 2.18-4.66 9.52 9.52 0 0 1 6.17-1.78 9.81 9.81 0 0 1 6.4 2.04z" fill="#0a1d38"/></g></svg>