<svg enable-background="new 0 0 260.5 51.3" viewBox="0 0 260.5 51.3" xmlns="http://www.w3.org/2000/svg"><g fill="#fff"><path d="m47.1 25.6-4.5 3.2s-4.7 4-10 1.3c-3.3-1.8-6.7-3.4-10.2-4.8 0 0-3.8-1.3-.4-3.5s9.6-6.4 9.6-6.4c2.2-1.3 4.8-1.8 7.3-1.2 3.1.9 13.7 3.2 13.7 3.2s3.8 1.9.5 4.3c-3.1 2.1-6 3.9-6 3.9z" opacity=".67"/><path d="m25.8 44c-.1 1.3 1.1 2.1 2.8 1.9s3.1-1.4 3.2-2.7-1.3-2-2.9-1.8c-1.5.1-2.7 1.2-3.1 2.6z" opacity=".62"/><path d="m31.7 47.9c0 1.3 1.3 2.2 2.9 2s3-1.4 3-2.7-1.4-2.1-3-1.9-2.9 1.4-2.9 2.6z" opacity=".62"/><path d="m40.1 42.9c.2 1.4 2 2.4 4.2 2.1s3.7-1.7 3.4-3.1-2.1-2.3-4.2-2-3.6 1.5-3.4 3z" opacity=".62"/><path d="m21.2 40.7c-.2 1.1.9 1.9 2.5 1.7s3-1.3 3.1-2.5-1-1.8-2.5-1.6c-1.5.1-2.7 1.1-3.1 2.4z" opacity=".62"/><path d="m16.9 37.7c-.2 1 .7 1.7 2.2 1.5 1.4-.1 2.6-1 3-2.3.2-1.1-.8-1.6-2.2-1.4-1.4.1-2.5 1-3 2.2z" opacity=".62"/><path d="m13 35.3c-.3.9.6 1.5 1.9 1.3 1.3-.1 2.4-.9 2.9-2.1.2-.9-.7-1.5-2-1.3-1.2.2-2.3 1-2.8 2.1z" opacity=".62"/><path d="m9.8 33c-.2.9.6 1.3 1.8 1 1.2-.2 2.1-1 2.6-2.1.2-.8-.7-1.3-1.9-1-1.1.3-2 1.1-2.5 2.1z" opacity=".62"/><path d="m34 38.9c0 1.2 1.4 2 3.2 1.8s3.2-1.4 3.1-2.7-1.5-1.9-3.2-1.7c-1.5.1-2.8 1.2-3.1 2.6z" opacity=".62"/><path d="m40.3 34.3c0 1.2 1.4 2 3.2 1.8s3.2-1.4 3.1-2.7-1.5-1.9-3.2-1.6-3.1 1.4-3.1 2.5z" opacity=".62"/><path d="m28.2 35.9c-.1 1.1 1.1 1.8 2.8 1.5s3-1.3 3-2.4-1.3-1.7-2.8-1.5-2.9 1.4-3 2.4z" opacity=".62"/><path d="m23.4 33.3c-.1 1 .9 1.6 2.4 1.4s2.8-1.2 2.9-2.2-1-1.5-2.5-1.3-2.7 1.1-2.8 2.1z" opacity=".62"/><path d="m19 31.1c-.2.9.8 1.5 2.2 1.2s2.7-1.2 2.8-2.1-.9-1.4-2.2-1.1c-1.2.2-2.2 1-2.8 2z" opacity=".62"/><path d="m15.7 28.9c-.2.8.6 1.3 2 1.1 1.2-.1 2.2-.8 2.7-1.9.2-.8-.7-1.3-2-1-1.2.1-2.2.8-2.7 1.8z" opacity=".62"/><path d="m11.8 27.6c-.3.7.5 1.2 1.7 1 1.1-.1 2-.8 2.5-1.7.2-.7-.6-1.1-1.7-.9-1.1.1-2 .7-2.5 1.6z" opacity=".61"/><path d="m8.8 26c-.3.7.4 1.1 1.5.9 1-.1 1.9-.7 2.4-1.6.2-.7-.5-1-1.5-.8-1.1 0-2 .6-2.4 1.5z" opacity=".62"/><path d="m14.1 22.9c-.2.6.5 1 1.6.8 1-.1 1.8-.7 2.3-1.5.2-.6-.6-.9-1.6-.7-1 0-1.9.5-2.3 1.4z" opacity=".62"/><path d="m10.4 21.7c-.2.6.4.9 1.4.7.9-.1 1.8-.7 2.3-1.5.2-.6-.5-.9-1.5-.7-.9.3-1.7.8-2.2 1.5z" opacity=".62"/><path d="m5.9 24.6c-.2.5.3.8 1.1.7s1.5-.6 2-1.3c.2-.5-.3-.8-1.2-.6-.8.2-1.5.6-1.9 1.2z" opacity=".62"/><path d="m7.2 30.8c-.3.6.3 1 1.3.9.9-.1 1.7-.7 2.1-1.5.2-.6-.4-1-1.3-.8-.9.1-1.7.6-2.1 1.4z" opacity=".62"/><path d="m5.3 36.4c-.3.6.3 1 1.1.9.9-.1 1.6-.6 2-1.4.2-.6-.3-1-1.2-.9-.8.2-1.5.7-1.9 1.4z" opacity=".62"/><path d="m1.9 34c-.3.6.2 1 1 .8.8-.1 1.5-.6 1.9-1.3.2-.6-.2-.9-1-.8-.8.2-1.5.7-1.9 1.3z" opacity=".62"/><path d="m4.8 28.9c-.2.5.2.8 1 .7s1.4-.5 1.8-1.2c.2-.5-.3-.8-1-.6-.8 0-1.5.4-1.8 1.1z" opacity=".62"/><path d="m8.5 38.9c-.2.7.3 1.2 1.3 1 .9-.1 1.7-.7 2.1-1.5.2-.7-.4-1.1-1.3-1-1 .1-1.8.7-2.1 1.5z" opacity=".62"/><path d="m12.3 41.8c-.2.8.4 1.3 1.4 1.2s1.9-.8 2.2-1.7c.2-.8-.5-1.2-1.5-1.1-1 .2-1.7.8-2.1 1.6z" opacity=".62"/><path d="m16.3 45c-.2.8.5 1.4 1.6 1.3 1-.1 1.9-.8 2.3-1.8.1-.8-.6-1.4-1.7-1.2-1 .1-1.9.8-2.2 1.7z" opacity=".62"/><path d="m10 50.4c-.1.5.3.9.9.9.6-.1 1.2-.5 1.4-1.1.1-.5-.3-.9-.9-.8-.7 0-1.2.4-1.4 1z" opacity=".62"/><path d="m5.9 46.4c-.2.7.3 1.1 1.1 1s1.5-.6 1.9-1.4c.2-.7-.3-1.1-1.1-1-.9.1-1.6.6-1.9 1.4z" opacity=".62"/><path d="m3.3 43.2c-.2.5.1.8.6.7.6 0 1.1-.4 1.3-.9.2-.4-.2-.7-.7-.7-.6.1-1 .4-1.2.9z" opacity=".62"/><path d="m.1 40.2c-.2.4.1.7.6.6s1-.4 1.2-.9c.2-.4-.1-.7-.6-.6-.5.2-.9.5-1.2.9z" opacity=".62"/><path d="m20.9 49.1c-.1 1 .7 1.6 1.9 1.5 1.1-.1 2.1-.9 2.4-2 .1-.9-.8-1.6-1.9-1.4-1.2 0-2.2.8-2.4 1.9z" opacity=".62"/><path d="m47.3 30.4c-.2 1 .7 1.6 1.9 1.5 1.1-.1 2.1-.9 2.4-2 .1-.9-.8-1.6-1.9-1.4-1.2 0-2.2.8-2.4 1.9z" opacity=".62"/><path d="m44 19.3-4.5 3.2s-4.7 4-10 1.3c-3.3-1.8-6.7-3.4-10.2-4.9 0 0-3.8-1.3-.4-3.5s9.6-6.4 9.6-6.4c2.2-1.3 4.8-1.8 7.3-1.2 3.1.9 13.7 3.2 13.7 3.2s3.8 1.9.5 4.3c-3.1 2.1-6 4-6 4z" opacity=".62"/><path d="m40.4 11.8-4.5 3.2s-4.7 4-10 1.3c-3.3-1.8-6.7-3.4-10.2-4.9 0 0-3.8-1.3-.4-3.6s9.6-6.4 9.6-6.4c2.2-1.3 4.8-1.7 7.3-1.2 3.1.9 13.7 3.2 13.7 3.2s3.8 1.9.5 4.3c-3.1 2.3-6 4.1-6 4.1z" opacity=".35"/><path d="m93.9 13.9v27.1h-6.6v-11.4h-10.2v11.3h-6.6v-27h6.6v10.5h10.2v-10.5z"/><path d="m114.1 20.6c1.7.9 3.1 2.2 4 3.8 1 1.8 1.5 3.8 1.4 5.8 0 2-.4 4-1.4 5.8-.9 1.6-2.3 3-4 3.8-3.6 1.8-7.8 1.8-11.4 0-1.7-.9-3.1-2.2-4-3.8-1-1.8-1.5-3.8-1.4-5.8 0-2 .5-4 1.4-5.8.9-1.6 2.3-3 4-3.8 3.6-1.7 7.8-1.7 11.4 0zm-8.9 5.7c-.9 1.1-1.4 2.5-1.3 3.9-.1 1.4.4 2.8 1.3 3.9.8.9 2 1.4 3.2 1.3 1.2 0 2.3-.5 3.1-1.3.9-1.1 1.4-2.5 1.3-3.9.1-1.4-.4-2.8-1.3-3.9-.8-.9-1.9-1.3-3.1-1.3s-2.4.4-3.2 1.3z"/><path d="m137.1 21.3c1.6 1.4 2.7 3.3 3 5.4h-6.1c-.2-.8-.6-1.5-1.2-2-.7-.5-1.5-.8-2.4-.8-.6 0-1.2.1-1.7.5-.4.3-.6.8-.6 1.4 0 .7.4 1.3 1.1 1.5 1.1.4 2.2.8 3.3 1 1.4.3 2.7.7 4 1.2 1.1.4 2 1.1 2.7 1.9.8 1 1.2 2.3 1.1 3.6 0 1.2-.3 2.3-1 3.3s-1.7 1.8-2.9 2.2c-1.4.6-2.9.8-4.4.8-2.5.1-4.9-.6-6.9-1.9-1.8-1.3-2.9-3.3-3.2-5.5h6.3c.1.8.5 1.6 1.2 2.1.8.5 1.7.8 2.6.7.6 0 1.2-.1 1.7-.5.4-.3.6-.8.6-1.4 0-.7-.4-1.3-1.1-1.6-1.1-.4-2.3-.8-3.4-1-1.3-.3-2.6-.6-3.9-1.1-1-.4-1.9-1-2.6-1.9-.8-1-1.2-2.2-1.1-3.5-.1-1.8.8-3.5 2.2-4.7 1.8-1.3 4-1.9 6.2-1.8 2.4 0 4.7.7 6.5 2.1z"/><path d="m156.3 35.3v5.6h-3c-2.1.1-4.2-.5-5.8-1.9-1.4-1.2-2.1-3.3-2.1-6.2v-7.9h-2.9v-5.5h2.9v-5.2h6.6v5.3h4.3v5.5h-4.3v8c-.1.6.1 1.3.5 1.8.5.4 1.1.6 1.7.5z"/><path d="m181 16.1c2.2 1.6 3.7 4 4.1 6.7h-6.9c-.5-1-1.2-1.8-2.1-2.3-1-.6-2.2-.9-3.4-.9-1.9-.1-3.7.7-5 2.1-1.3 1.6-2 3.6-1.9 5.6-.1 2.2.6 4.3 2 5.9 1.5 1.4 3.5 2.2 5.6 2.1 3.1.1 5.8-2 6.6-4.9h-8.3v-4.7h13.8v6.5c-.5 1.6-1.4 3.1-2.4 4.4-1.2 1.4-2.7 2.5-4.3 3.3-1.9.9-3.9 1.3-6 1.3-2.5.1-5-.5-7.2-1.7-2-1.1-3.7-2.8-4.7-4.9-1.1-2.2-1.7-4.7-1.7-7.2s.5-5 1.7-7.2c1.1-2 2.7-3.7 4.7-4.9 2.2-1.2 4.6-1.8 7.1-1.7 2.9-.1 5.9.7 8.3 2.5z"/><path d="m198.8 20.5c1.3-.8 2.7-1.2 4.2-1.1v7h-1.9c-1.4-.1-2.8.3-4 1.1-1 1-1.6 2.3-1.4 3.8v9.7h-6.6v-21.4h6.6v4c.8-1.3 1.9-2.4 3.1-3.1z"/><path d="m206.3 11.1c1.7-1.3 4-1.3 5.7 0 .7.6 1.1 1.5 1.1 2.5 0 .9-.4 1.8-1.1 2.5-1.7 1.3-4 1.3-5.7 0-.7-.6-1.1-1.5-1.1-2.4-.1-1.1.3-2 1.1-2.6zm6 8.5v21.4h-6.6v-21.4z"/><path d="m229.2 20.4c1.1.7 2 1.8 2.6 3v-10.8h6.6v28.4h-6.6v-3.9c-.5 1.2-1.4 2.3-2.6 3-1.3.8-2.7 1.2-4.2 1.1-1.7 0-3.3-.4-4.7-1.3s-2.6-2.3-3.3-3.8c-.8-1.8-1.3-3.8-1.2-5.8 0-2 .4-4 1.2-5.8.7-1.5 1.9-2.9 3.3-3.8s3.1-1.3 4.7-1.3c1.5-.2 2.9.2 4.2 1zm-5.5 6c-.9 1.1-1.4 2.4-1.3 3.8-.1 1.4.4 2.8 1.3 3.8 1.9 1.9 4.9 1.9 6.8 0 .9-1 1.4-2.4 1.3-3.8.1-1.4-.4-2.8-1.3-3.8s-2.1-1.5-3.4-1.5c-1.3.1-2.5.6-3.4 1.5z"/><path d="m257.1 21.3c1.6 1.4 2.7 3.3 3 5.4h-6c-.2-.8-.6-1.5-1.2-2-.7-.5-1.5-.8-2.4-.8-.6 0-1.2.1-1.7.5-.4.3-.6.8-.6 1.4 0 .7.4 1.3 1.1 1.5 1.1.4 2.2.8 3.3 1 1.4.3 2.7.7 4 1.2 1.1.4 2 1.1 2.7 1.9.8 1 1.2 2.3 1.1 3.6 0 1.2-.3 2.3-1 3.3s-1.7 1.8-2.9 2.2c-1.4.6-2.9.8-4.4.8-2.5.1-4.9-.6-6.9-1.9-1.8-1.3-2.9-3.3-3.2-5.5h6.3c.1.8.5 1.6 1.2 2.1.8.5 1.7.8 2.6.7.6 0 1.2-.1 1.7-.5.4-.3.6-.8.6-1.4 0-.7-.4-1.3-1.1-1.6-1.1-.4-2.3-.8-3.4-1-1.3-.3-2.6-.6-3.9-1.1-1-.4-1.9-1-2.6-1.9-.8-1-1.2-2.2-1.1-3.5-.1-1.8.8-3.5 2.2-4.7 1.8-1.3 4-1.9 6.2-1.8 2.3 0 4.5.7 6.4 2.1z"/></g></svg>